Coordinates
version=1
nRows=15
nColumns=63
inDegrees=yes

Units are S.I. units (second, meters, Newtons, ...)
If the header above contains a line with 'inDegrees', this indicates whether rotational values are in degrees (yes) or radians (no).

endheader
time	pelvis_tilt	pelvis_list	pelvis_rotation	pelvis_tx	pelvis_ty	pelvis_tz	hip_flexion_r	hip_adduction_r	hip_rotation_r	knee_angle_r	knee_angle_r_beta	ankle_angle_r	subtalar_angle_r	mtp_angle_r	hip_flexion_l	hip_adduction_l	hip_rotation_l	knee_angle_l	knee_angle_l_beta	ankle_angle_l	subtalar_angle_l	mtp_angle_l	L5_S1_Flex_Ext	L5_S1_Lat_Bending	L5_S1_axial_rotation	L4_L5_Flex_Ext	L4_L5_Lat_Bending	L4_L5_axial_rotation	L3_L4_Flex_Ext	L3_L4_Lat_Bending	L3_L4_axial_rotation	L2_L3_Flex_Ext	L2_L3_Lat_Bending	L2_L3_axial_rotation	L1_L2_Flex_Ext	L1_L2_Lat_Bending	L1_L2_axial_rotation	L1_T12_Flex_Ext	L1_T12_Lat_Bending	L1_T12_axial_rotation	Abs_r3	Abs_r2	Abs_r1	Abs_t1	Abs_t2	neck_flexion	neck_bending	neck_rotation	arm_flex_r	arm_add_r	arm_rot_r	elbow_flex_r	pro_sup_r	wrist_flex_r	wrist_dev_r	arm_flex_l	arm_add_l	arm_rot_l	elbow_flex_l	pro_sup_l	wrist_flex_l	wrist_dev_l
0.000000	-0.337375	-6.056923	78.180025	0.212175	0.982037	0.421441	1.662310	4.557761	-2.914886	8.774620	0.153146	26.489459	-11.437313	0.000000	-0.167567	-5.349397	-4.151362	5.924637	0.103404	34.918052	14.038855	0.000000	0.169279	0.602608	-0.457007	0.314368	0.801469	-0.485570	0.278108	1.465182	-0.485570	0.193469	1.465182	-0.399881	0.157192	1.228839	-0.371318	0.096726	0.933440	-0.342755	1.209141	6.816826	-2.541736	0.000000	0.000000	27.652731	-2.443092	-0.326297	18.181060	-19.731152	68.425617	60.375669	14.174950	-3.467717	3.727902	14.047353	-9.734567	49.111352	55.656800	62.842336	-3.615304	3.844423
0.018868	-0.097457	-5.983153	77.935266	0.212878	0.982377	0.421779	1.633709	4.778967	-1.729891	8.589745	0.149919	26.457279	-12.648866	0.000000	0.239061	-5.658113	-4.614960	6.946723	0.121243	35.668043	14.176979	0.000000	0.148473	0.629502	-0.397005	0.275730	0.837237	-0.421818	0.243927	1.530570	-0.421818	0.169690	1.530570	-0.347380	0.137872	1.283680	-0.322567	0.084838	0.975098	-0.297754	1.060529	7.121049	-2.208024	0.000000	0.000000	27.543724	-2.650577	-0.071486	17.537743	-19.019411	66.720737	59.396737	17.771700	-2.929388	5.425989	14.073985	-10.114929	50.353620	55.084239	62.560674	-2.703426	3.692895
0.037736	0.095727	-5.979967	77.634771	0.213393	0.982636	0.422321	1.721366	4.972253	-0.659818	8.484168	0.148077	26.423631	-13.644001	0.000000	0.592252	-5.904059	-4.927444	7.695102	0.134305	36.189832	14.093130	0.000000	0.134634	0.653875	-0.341632	0.250029	0.869653	-0.362984	0.221190	1.589831	-0.362984	0.153873	1.589831	-0.298928	0.125021	1.333381	-0.277576	0.076930	1.012852	-0.256224	0.961678	7.396761	-1.900055	0.000000	0.000000	27.465546	-2.776830	0.162715	16.864056	-18.440640	65.130874	58.628997	20.770667	-2.533801	6.857028	14.104875	-10.419305	51.454212	54.568741	62.535740	-1.814879	3.591633
0.056604	0.245861	-6.038320	77.289164	0.213739	0.982821	0.423041	1.910213	5.138890	0.297491	8.450184	0.147484	26.388294	-14.441956	0.000000	0.896624	-6.092894	-5.111230	8.199400	0.143107	36.509185	13.823520	0.000000	0.126959	0.675673	-0.290232	0.235775	0.898645	-0.308371	0.208580	1.642831	-0.308371	0.145101	1.642831	-0.253953	0.117894	1.377832	-0.235813	0.072544	1.046617	-0.217674	0.906852	7.643346	-1.614183	0.000000	0.000000	27.414614	-2.833349	0.370544	16.166302	-17.981314	63.651020	58.048856	23.222889	-2.265274	8.043423	14.138538	-10.652163	52.420029	54.105691	62.718719	-0.957095	3.537839
0.075472	0.356629	-6.149167	76.909065	0.213939	0.982940	0.423911	2.185181	5.280151	1.144197	8.480086	0.148005	26.351049	-15.061975	0.000000	1.156792	-6.230279	-5.188734	8.489246	0.148165	36.651871	13.404360	0.000000	0.124643	0.694842	-0.242148	0.231475	0.924139	-0.257283	0.204777	1.689438	-0.257283	0.142455	1.689438	-0.211880	0.115744	1.416921	-0.196746	0.071221	1.076310	-0.181611	0.890316	7.860189	-1.346757	0.000000	0.000000	27.387343	-2.831632	0.546239	15.450780	-17.627907	62.276170	57.632719	25.179405	-2.108126	9.007580	14.173490	-10.817969	53.257972	53.690474	63.060801	-0.137505	3.528717
0.094340	0.431715	-6.303463	76.505098	0.214010	0.983000	0.424904	2.531203	5.397307	1.882459	8.566166	0.149508	26.311677	-15.523299	0.000000	1.377370	-6.321875	-5.182373	8.594264	0.149998	36.643656	12.871863	0.000000	0.126886	0.711327	-0.196726	0.235640	0.946065	-0.209021	0.208461	1.729520	-0.209021	0.145018	1.729520	-0.172135	0.117826	1.450538	-0.159840	0.072503	1.101845	-0.147544	0.906332	8.046672	-1.094130	0.000000	0.000000	27.380149	-2.783176	0.684039	14.723794	-17.366894	61.001316	57.356990	26.691252	-2.046676	9.771904	14.208245	-10.921190	53.974942	53.318478	63.513173	0.636458	3.561467
0.113208	0.474805	-6.492162	76.087885	0.213974	0.983010	0.425991	2.933211	5.491629	2.514437	8.700720	0.151856	26.269956	-15.845168	0.000000	1.562975	-6.373340	-5.114563	8.544083	0.149122	36.510306	12.262240	0.000000	0.132882	0.725074	-0.153308	0.246776	0.964348	-0.162890	0.218313	1.762945	-0.162890	0.151871	1.762945	-0.134144	0.123395	1.478571	-0.124563	0.075929	1.123139	-0.114981	0.949166	8.202180	-0.852653	0.000000	0.000000	27.389447	-2.699480	0.778182	13.991643	-17.184749	59.821452	57.198076	27.809467	-2.065242	10.358799	14.241320	-10.966294	54.577838	52.985088	64.027023	1.357364	3.633292
0.132075	0.489582	-6.706220	75.668047	0.213851	0.982976	0.427146	3.376137	5.564389	3.042288	8.876041	0.154916	26.225667	-16.046824	0.000000	1.718222	-6.390336	-5.007722	8.368329	0.146055	36.277590	11.611703	0.000000	0.141831	0.736028	-0.111239	0.263394	0.978918	-0.118191	0.233014	1.789579	-0.118191	0.162098	1.789579	-0.097334	0.131704	1.500909	-0.090382	0.081042	1.140108	-0.083429	1.013082	8.326098	-0.618677	0.000000	0.000000	27.411654	-2.592040	0.822905	13.260629	-17.067947	58.731570	57.132382	28.585088	-2.148144	10.790671	14.271229	-10.957747	55.073560	52.685691	64.553539	2.017780	3.741395
0.150943	0.479731	-6.936591	75.256206	0.213660	0.982907	0.428340	3.844913	5.616857	3.468174	9.084422	0.158553	26.178591	-16.147508	0.000000	1.847726	-6.378522	-4.884265	8.096629	0.141313	35.971275	10.956465	0.000000	0.152927	0.744136	-0.069863	0.284001	0.989700	-0.074229	0.251244	1.809291	-0.074229	0.174780	1.809291	-0.061130	0.142008	1.517441	-0.056763	0.087383	1.152666	-0.052397	1.092343	8.417810	-0.388555	0.000000	0.000000	27.443185	-2.472355	0.812447	12.537053	-17.002964	57.726665	57.136314	29.069153	-2.279699	11.089923	14.296488	-10.900016	55.469010	52.415671	65.043908	2.610275	3.882978
0.169811	0.448936	-7.174230	74.862986	0.213423	0.982810	0.429546	4.324470	5.650307	3.794252	9.318156	0.162632	26.128507	-16.166463	0.000000	1.956104	-6.343559	-4.766608	7.758610	0.135413	35.617127	10.332736	0.000000	0.165369	0.749341	-0.028523	0.307107	0.996624	-0.030306	0.271685	1.821949	-0.030306	0.189000	1.821949	-0.024958	0.153562	1.528057	-0.023175	0.094492	1.160730	-0.021392	1.181214	8.476699	-0.158638	0.000000	0.000000	27.480456	-2.351922	0.741046	11.827216	-16.976272	56.801729	57.186276	29.312700	-2.444228	11.278960	14.315612	-10.797568	55.771088	52.170417	65.449318	3.127418	4.055242
0.188679	0.400882	-7.410091	74.499007	0.213158	0.982694	0.430737	4.799742	5.666008	4.022683	9.569537	0.167020	26.075195	-16.122928	0.000000	2.047969	-6.291107	-4.677169	7.383897	0.128873	35.240914	9.776730	0.000000	0.178353	0.751591	0.013435	0.331220	0.999616	0.014275	0.293017	1.827419	0.014275	0.203840	1.827419	0.011756	0.165619	1.532645	0.010916	0.101911	1.164215	0.010077	1.273959	8.502150	0.074723	0.000000	0.000000	27.519882	-2.242240	0.602941	11.137420	-16.974348	55.951755	57.258674	29.366765	-2.626049	11.380189	14.327117	-10.654871	55.986694	51.945312	65.720957	3.561777	4.255390
0.207547	0.328705	-7.604091	74.154254	0.212964	0.982536	0.431909	5.228698	5.650119	4.163328	9.850131	0.171917	26.015596	-16.055246	0.000000	2.120786	-6.219009	-4.763093	7.057700	0.123180	34.921809	9.442155	0.000000	0.187606	0.748782	0.076181	0.348403	0.995880	0.080942	0.308218	1.820589	0.080942	0.214415	1.820589	0.066658	0.174211	1.526917	0.061897	0.107198	1.159864	0.057136	1.340051	8.470375	0.423696	0.000000	0.000000	27.545873	-2.230579	0.334407	10.512553	-16.931937	55.107550	57.294826	29.162076	-2.937927	11.738018	14.323203	-10.440307	56.122622	51.734174	65.530404	3.680914	4.514473
0.226415	0.237644	-7.773587	73.890932	0.212827	0.982385	0.433001	5.622207	5.607241	4.130671	10.149952	0.177150	25.932521	-15.981998	0.000000	2.206594	-6.141492	-4.980796	6.795471	0.118603	34.663104	9.348167	0.000000	0.195907	0.739496	0.138952	0.363820	0.983530	0.147636	0.321856	1.798011	0.147636	0.223903	1.798011	0.121583	0.181920	1.507981	0.112898	0.111941	1.145480	0.104214	1.399347	8.365330	0.772807	0.000000	0.000000	27.566182	-2.236247	-0.071291	9.926048	-16.936967	54.503095	57.361791	28.210763	-3.224020	11.999302	14.323577	-10.206140	56.199112	51.564377	64.961266	3.832125	4.944652
0.245283	0.134567	-7.916300	73.708332	0.212760	0.982246	0.433965	5.963466	5.542865	3.948916	10.437465	0.182168	25.850755	-15.870711	0.000000	2.309583	-6.064423	-5.310005	6.619766	0.115537	34.470367	9.457862	0.000000	0.203297	0.725274	0.200755	0.377544	0.964614	0.213302	0.333997	1.763431	0.213302	0.232349	1.763431	0.175661	0.188782	1.478978	0.163114	0.116164	1.123449	0.150566	1.452133	8.204443	1.116540	0.000000	0.000000	27.575373	-2.276908	-0.576440	9.348013	-16.917563	53.905682	57.393849	27.648854	-3.346461	12.149999	14.283188	-9.967381	56.128663	51.467005	64.036362	3.974868	5.542142
0.264151	0.046703	-8.023512	73.635181	0.212727	0.982139	0.434723	6.218195	5.488061	3.749532	10.666848	0.186172	25.732613	-15.887328	0.000000	2.412523	-6.010536	-5.728883	6.520955	0.113812	34.360137	9.780062	0.000000	0.208854	0.709851	0.256287	0.387863	0.944101	0.272305	0.343126	1.725931	0.272305	0.238699	1.725931	0.224251	0.193942	1.447528	0.208233	0.119339	1.099559	0.192215	1.491823	8.029973	1.425393	0.000000	0.000000	27.570327	-2.378560	-1.164884	8.753603	-16.844532	53.227264	57.334601	27.522249	-3.277910	12.234739	14.202839	-9.728616	55.961422	51.395874	62.564446	4.187077	6.119892
